<svg width="40" height="40" viewBox="0 0 40 40" fill="none" xmlns="http://www.w3.org/2000/svg">
<path d="M24.6999 7.09998C24.3689 7.69279 24.0739 8.30501 23.8165 8.93331C21.2878 8.53339 18.7119 8.53339 16.1832 8.93331C15.9258 8.30501 15.6309 7.69279 15.2999 7.09998C12.9178 7.50698 10.6022 8.23587 8.41653 9.26664C4.5081 14.9071 2.73559 21.7549 3.41653 28.5833C5.96359 30.4981 8.82229 31.9584 11.8665 32.9C12.5597 31.9843 13.1784 31.0145 13.7165 30C12.7233 29.6338 11.7687 29.1704 10.8665 28.6166C11.114 28.452 11.348 28.2681 11.5665 28.0666C14.1973 29.3338 17.0798 29.9919 19.9999 29.9919C22.9199 29.9919 25.8024 29.3338 28.4332 28.0666C28.6665 28.2666 28.8999 28.45 29.1332 28.6166C28.2261 29.166 27.2724 29.6345 26.2832 30.0166C26.799 31.0542 27.4012 32.0466 28.0832 32.9833C31.1236 32.045 33.9774 30.5843 36.5165 28.6666C37.2138 21.837 35.4399 14.9836 31.5165 9.34998C29.3554 8.29787 27.0626 7.54109 24.6999 7.09998V7.09998ZM14.4665 24.6833C13.6325 24.6234 12.8541 24.2428 12.2947 23.6213C11.7354 22.9997 11.4385 22.1857 11.4665 21.35C11.4343 20.5132 11.7297 19.6968 12.2899 19.0743C12.8501 18.4519 13.631 18.0724 14.4665 18.0166C15.3021 18.0724 16.083 18.4519 16.6432 19.0743C17.2034 19.6968 17.4988 20.5132 17.4665 21.35C17.4988 22.1868 17.2034 23.0032 16.6432 23.6256C16.083 24.2481 15.3021 24.6275 14.4665 24.6833V24.6833ZM25.5332 24.6833C24.6992 24.6234 23.9208 24.2428 23.3614 23.6213C22.802 22.9997 22.5052 22.1857 22.5332 21.35C22.501 20.5132 22.7963 19.6968 23.3565 19.0743C23.9168 18.4519 24.6976 18.0724 25.5332 18.0166C26.3703 18.0683 27.1537 18.4465 27.7148 19.0699C28.2758 19.6933 28.5697 20.5121 28.5332 21.35C28.5697 22.1879 28.2758 23.0067 27.7148 23.6301C27.1537 24.2535 26.3703 24.6317 25.5332 24.6833V24.6833Z" fill="#F0CB56"/>
</svg>
