<svg width="40" height="40" viewBox="0 0 40 40" fill="none" xmlns="http://www.w3.org/2000/svg">
<path d="M31.6668 6.66669H8.3335C7.00741 6.66669 5.73564 7.19347 4.79796 8.13115C3.86028 9.06884 3.3335 10.3406 3.3335 11.6667V28.3334C3.3335 29.6594 3.86028 30.9312 4.79796 31.8689C5.73564 32.8066 7.00741 33.3334 8.3335 33.3334H31.6668C32.9929 33.3334 34.2647 32.8066 35.2024 31.8689C36.14 30.9312 36.6668 29.6594 36.6668 28.3334V11.6667C36.6668 10.3406 36.14 9.06884 35.2024 8.13115C34.2647 7.19347 32.9929 6.66669 31.6668 6.66669V6.66669ZM31.6668 10L20.8335 17.45C20.5801 17.5963 20.2927 17.6733 20.0002 17.6733C19.7076 17.6733 19.4202 17.5963 19.1668 17.45L8.3335 10H31.6668Z" fill="#F0CB56"/>
</svg>
